<?xml version="1.0" encoding="UTF-8"?>
<svg width="400px" height="400px" version="1.2" xmlns="http://www.w3.org/2000/svg"
     baseProfile="tiny-ps"
     zoomAndPan="disable" externalResourcesRequired="false">
  <title>hogwild.uk</title>
  <desc>Logo for hogwild.uk</desc>
  <rect x="0" y="0" width="100%" height="100%" fill="white"></rect>
    <g transform="matrix(0.79044,0,0,0.79044,36.722343,-1.921737)">
        <g transform="matrix(0.912945,0,0,0.912945,-6.114668,21.710032)">
            <path d="M123.59,124.422C126.912,129.394 129.548,153.668 132.707,144.593C134.481,139.498 131.785,138.185 131.296,137.947C127.623,136.159 135.076,131.29 136.079,118.444C136.126,117.833 136.983,115.813 137.001,115.458C137.452,106.341 137.1,106.393 138.081,102.391C138.262,101.652 142.036,98.481 144.07,103.64C145.19,106.484 146.991,105.564 147.514,109.498C147.856,112.07 150.15,115.792 150.254,111.444C150.323,108.552 153.692,97.976 152.926,90.45C152.863,89.831 152.307,84.372 158.55,85.078C161.971,85.465 163.345,88.886 165.35,84.418C166.252,82.409 170.861,82.547 171.015,84.552C171.655,92.872 171.121,93.347 172.384,93.697C176.489,94.834 173.726,74.211 178.543,73.998C188.466,73.558 188.594,76.436 190.274,75.163C194.659,71.843 190.228,69.788 192.783,66.74C196.397,62.426 202.563,71.679 205.221,68.216C206.175,66.972 205.548,65.544 209.561,64.923C210.037,64.849 217.069,60.974 219.575,62.35C221.608,63.465 236.134,72.671 230.879,66.283C227.377,62.026 236.451,54.487 238.649,59.421C240.173,62.839 235.817,77.232 240.276,74.22C241.748,73.226 242.781,60.962 249.604,62.081C251.412,62.378 250.987,68.294 253.075,64.267C254.985,60.581 260.682,60.125 259.926,67.551C259.524,71.511 257.177,83.197 260.772,75.882C264.667,67.956 265.241,67.533 268.604,68.081C272.615,68.735 267.159,82.472 268.451,82.595C269.596,82.704 275.145,78.354 276.077,84.563C276.831,89.578 279.084,86.963 283.603,84.702C284.439,84.284 284.086,83.721 293.603,78.668C298.201,76.226 326.401,39.333 330.65,49.421C332.265,53.257 325.674,56.74 326.877,59.337C327.937,61.625 328.382,58.807 347.219,35.259C347.783,34.555 355.866,21.429 362.575,24.35C363.032,24.549 364.804,26.583 366.272,25.223C369.68,22.065 369.993,22.529 373.262,19.261C376.81,15.712 376.31,15.324 380.259,12.219C384.397,8.966 385.715,0.898 391.428,2.687C396.3,4.212 402.038,0.141 402.997,5.444C403.821,9.998 403.146,9.932 402.291,14.449C401.607,18.057 410.087,15.037 409.74,19.533C409.416,23.733 407.436,23.221 407.369,27.497C407.345,29.08 401.427,39.856 407.767,33.857C412.277,29.589 417.763,32.665 415.682,37.574C413.841,41.914 407.021,62.171 411.545,60.741C416.179,59.275 416.302,57.867 419.39,59.707C423.145,61.945 419.853,63.982 419.371,70.498C419.02,75.23 411.816,91.024 417.752,85.863C420.393,83.566 429.811,85.105 423.754,92.696C421.296,95.776 428.512,94.924 428.918,97.397C429.509,100.996 425.327,104.014 422.318,111.423C420.078,116.937 420.698,117.062 418.237,122.418C416.433,126.342 428.173,121.776 426.679,126.548C425.093,131.614 420.71,130.767 420.739,134.473C420.767,138.087 415.07,138.093 415.805,141.445C416.262,143.528 415.91,143.451 415.699,145.537C415.525,147.258 422.012,147.287 419.649,152.578C419.439,153.049 418.612,152.383 415.529,157.524C412.511,162.558 411.841,162.328 411.002,168.457C410.808,169.875 400.528,191.09 397.785,194.729C395.53,197.72 396.208,206.509 396.784,207.271C399.337,210.649 398.696,211.173 402.685,223.426C405.235,231.262 400.69,232.273 405.669,241.397C409.27,247.997 409.625,248.302 407.315,255.426C405.842,259.971 411.701,264.054 412.996,276.463C414.123,287.255 421.162,288.287 416.769,300.597C416.677,300.853 416.969,309.58 417.316,310.574C418.201,313.116 417.724,319.404 419.685,325.426C420.176,326.935 420.619,331.129 421.685,334.426C421.838,334.902 422.3,336.33 420.656,340.586C419.885,342.58 417.106,340.575 417.02,343.442C416.956,345.591 419.443,357.287 413.425,354.651C410.689,353.452 408.819,347.129 408.783,352.565C408.758,356.293 405.969,360.128 407.685,365.426C407.975,366.323 407.673,368.077 408.55,373.493C409.52,379.484 409.627,379.493 408.019,385.441C407.316,388.042 405.175,385.93 403.704,388.611C399.893,395.558 398.853,394.966 396.057,402.39C394.888,405.493 393.123,403.378 390.736,405.741C387.462,408.984 387.581,408.956 384.78,412.731C382.337,416.024 381.564,415.165 377.78,419.741C375.876,422.043 375.531,421.504 372.514,421.661C370.8,421.749 363.063,431.34 363.037,435.493C362.994,442.327 364.272,442.706 360.665,448.606C358.021,452.93 353.774,445.71 352.836,448.609C350.561,455.64 346.267,459.811 346.08,461.44C345.993,462.193 344.967,471.112 341.425,469.694C340.026,469.134 338.341,466.206 333.784,471.739C332.299,473.541 332.879,490.574 324.429,487.686C318.804,485.764 321.352,499.747 314.421,496.649C309.931,494.641 313.775,476.273 310.197,482.262C307.59,486.625 304.021,502.458 299.454,501.678C291.055,500.243 296.976,488.822 296.378,482.554C296.291,481.631 293.027,480.443 290.421,492.482C289.48,496.83 282.448,497.883 282.094,494.594C281.851,492.347 282.646,490.613 280.609,491.685C277.931,493.094 279.651,495.625 271.426,498.312C268.775,499.179 263.119,495.636 256.572,497.687C249.921,499.77 249.045,486.436 246.666,491.608C246.47,492.035 243.087,503.742 237.785,498.22C236.065,496.429 238.756,478.57 234.266,488.376C226.482,505.376 227.317,510.74 220.423,507.65C215.085,505.259 220.599,490.818 218.681,486.426C218.079,485.045 217.369,483.713 216.733,482.347C216.072,480.925 216.335,480.714 216.203,480.742C215.801,480.828 215.902,481.671 215.5,481.757C215.194,481.692 214.888,481.627 214.581,481.562C211.597,489.455 209.602,495.488 205.74,492.217C200.993,488.195 205.565,477.459 203.519,475.481C201.394,473.429 197.159,479.832 196.449,480.01C189.763,481.692 191.684,469.732 191.462,469.541C189.544,467.895 189.316,473.85 187.578,474.648C177.77,479.146 183.884,456.697 183.243,455.639C180.733,451.499 180.068,470.932 174.427,468.685C168.692,466.401 171.299,464.475 170.942,458.363C170.71,454.388 161.536,462.222 159.924,451.437C158.99,445.185 155.642,452.362 152.5,452.363C143.978,452.363 153.001,431.54 151.496,426.508C148.817,428.083 148.735,437.375 143.785,432.22C141.093,429.415 145.694,427.142 143.314,420.576C141.648,415.98 144.963,412.612 145.001,411.458C145.021,410.848 145.236,404.336 143.453,403.983C143.276,403.948 137.564,405.861 136.991,402.447C136.838,401.539 137.929,398.423 134.564,399.672C134.044,399.866 130.368,401.231 128.35,396.575C126.249,391.729 130.625,387.016 125.563,388.676C122.678,389.622 121.088,386.351 120.998,385.457C120.622,381.712 121.579,380.598 119.498,380.615C117.446,380.632 110.829,389.37 111.037,376.493C111.095,372.897 111.817,372.882 110.687,369.426C109.679,366.344 113.424,365.003 110.392,363.908C103.857,361.548 108.916,357.225 107.685,353.426C106.554,349.939 105.502,350.126 106.004,346.463C106.915,339.816 103.612,339.083 102.943,337.386C101.397,333.468 99.926,334.341 97.932,329.348C96.99,326.988 93.14,328.662 92.998,325.457C92.61,316.702 95.178,317.121 96.079,308.444C96.769,301.791 100.141,293.818 100.655,292.603C107.881,275.521 97.337,294.792 97.176,295.095C93.486,302.044 91.466,306.615 87.783,302.26C86.287,300.491 88.031,299.341 85.389,297.704C77.189,292.622 86.753,287.859 85.232,283.597C80.767,271.082 89.553,268.521 84.39,265.703C69.497,257.578 77.259,252.914 78.996,243.55C79.374,241.507 84.333,234.59 82.799,232.296C82.122,231.285 82.239,226.324 80.707,228.667C78.991,231.293 79.626,232.501 76.514,232.341C69.194,231.964 80.986,200.131 75.708,207.673C68.131,218.499 68.185,226.98 63.74,223.217C62.034,221.773 60.821,218.01 59.605,217.336C59.193,217.108 55.144,214.864 55.079,213.561C54.726,206.451 56.143,205.043 53.409,204.872C50.957,204.719 45.901,209.902 46.37,201.498C46.859,192.766 49.101,190.917 43.423,188.65C38.933,186.859 43.93,183.189 37.664,171.395C37.56,171.199 33.292,168.506 32.999,165.458C32.059,155.696 31.251,155.912 26.317,143.577C23.297,136.025 21.766,136.52 20.921,128.443C20.86,127.861 18.745,123.791 17.923,118.439C16.499,109.177 13.33,108.015 12.422,107.683C9.218,106.508 6.022,97.924 5.999,97.458C5.619,89.844 7.141,89.097 3.783,86.218C-0.306,82.713 4.169,77.357 5.079,69.44C5.34,67.177 6.763,67.752 7.001,65.457C7.059,64.898 7.059,55.989 10.452,55.328C14.561,54.529 15.368,61.875 17.253,59.289C17.316,59.202 18.697,48.958 23.26,52.783C26.19,55.239 21.94,59.943 25.41,58.347C25.492,58.309 28.401,53.577 32.579,55.351C36.579,57.048 31.703,64.02 30.921,71.556C30.871,72.04 30.482,71.903 29.86,77.546C29.554,80.316 27.817,82.542 30.41,81.349C31.051,81.054 36.762,69.875 42.578,72.351C47.589,74.484 42.177,91.599 47.492,86.491C50.614,83.492 55.836,85.498 56.002,88.543C56.11,90.526 56.016,92.515 56.035,94.5C56.069,98.042 57.346,98.042 56.312,101.428C56.136,102.006 54.999,110.819 63.74,102.78C67.063,99.725 73.77,101.186 74.649,103.42C76.549,108.25 75.48,116.875 78.297,114.251C79.068,113.533 86.71,106.417 91.217,111.74C91.601,112.194 93.323,118.608 92.685,120.573C89.835,129.348 101.067,120.798 104.668,127.397C105.5,128.922 105.865,133.534 111.574,131.684C118.251,129.521 118.681,136.871 120.933,133.835C122.264,132.04 118.88,129.284 121.229,126.34C122.455,125.894 122.277,125.732 123.59,124.422Z" style="fill-rule:nonzero;"/>
        </g>
        <g transform="matrix(0.912945,0,0,0.912945,-6.114668,21.710032)">
            <path d="M198.711,95.715C199.257,95.682 199.803,95.649 200.349,95.616C203.38,99.115 204.746,100.286 207.331,96.397C210.146,92.163 211.118,92.572 211.514,88.502C211.71,86.483 213.703,87.12 213.477,89.501C213.263,91.75 211.071,98.688 217.453,100.676C221.724,102.007 225.93,86.662 228.177,83.215C228.189,83.196 229.854,76.836 231.01,79.715C231.122,79.992 227.242,104.181 237.188,93.243C237.521,92.876 239.349,88.585 240.5,88.586C242.289,88.587 244.367,95.593 247.94,89.791C250.59,85.487 249.044,95.381 251.394,96.664C257.026,99.739 255.822,94.744 257.387,94.307C260.635,93.4 257.716,98.487 262.482,99.575C263.847,99.886 267.837,103.964 268.002,105.543C268.399,109.336 267.707,110.558 271.537,111C275.928,111.508 273.003,106.511 275.5,106.53C277.991,106.55 275.869,114.434 279.456,118.542C285.556,125.528 275.196,125.427 276.296,128.552C278.804,135.677 289.704,137.397 286.283,126.59C284.292,120.301 283.193,105.729 283.315,105.427C284.077,103.545 285.242,102.33 286.078,97.435C286.675,93.939 288.608,95.042 292.33,88.396C292.553,87.998 292.799,87.559 296.514,84.519C301.373,80.542 296.935,87.413 296.799,87.622C296.564,87.986 293.2,96.342 292.999,97.542C292.506,100.493 293.513,100.615 292.366,103.417C291.755,104.911 294.81,108.237 291.526,108.828C288.791,109.321 288.127,114.955 289.685,119.426C291.039,123.315 288.42,123.48 289.717,127.412C290.135,128.681 289.036,129.16 292.351,137.581C293.425,140.31 300.789,138.669 298.315,131.574C295.788,124.325 301.458,126.629 303.272,125.203C306.871,122.373 306.882,130.174 310.54,127.56C313.028,125.782 314.519,113.985 314.785,113.78C315.548,113.193 316.451,112.806 317.215,112.219C317.733,111.821 320.96,105.015 321.263,104.377C321.316,104.263 323.528,93.982 325.723,96.257C325.863,96.402 320.917,115.643 328.575,112.655C332.157,111.258 332.728,99.452 336.411,100.756C342.781,103.011 342.117,99.707 346.215,94.271C347.418,92.675 348.578,85.212 351.343,90.599C357.105,101.824 361.861,73.163 367.547,74.075C370.472,74.545 370.846,75.095 372.779,72.741C378.365,65.936 376.624,61.109 382.425,63.654C388.888,66.489 383.887,51.155 389.264,55.779C392.258,58.353 390.084,59.531 389.97,62.504C389.626,71.465 387.047,74.424 388.782,76.262C388.892,76.378 395.072,81.083 396.077,87.561C396.655,91.284 400.404,91.173 397.683,97.577C395.843,101.905 395.389,101.721 395.371,104.498C395.344,108.557 394.261,108.495 395.005,112.55C395.648,116.06 396.821,115.296 399.216,117.779C400.742,119.362 398.397,123.701 397.996,127.537C397.252,134.668 397.371,134.801 397.783,135.262C399.826,137.545 400.812,137.646 399.319,141.426C399.024,142.17 397.809,145.245 399.688,151.428C400.807,155.112 393.188,162.629 392.999,165.542C392.554,172.398 392.511,172.395 389.309,178.395C387.693,181.421 386.425,178.315 384.4,177.763C378.415,176.13 379.304,174.582 378.921,168.444C378.843,167.193 377.638,165.357 376.921,158.444C376.61,155.439 375.335,155.373 377.314,149.424C378.318,146.405 379.695,137.619 379.651,137.445C379.249,135.845 376.484,136.105 377.686,132.571C380.117,125.425 372.866,111.668 375.684,103.574C376.698,100.663 376.881,95.222 376.905,94.489C377.015,91.217 369.906,89.825 368.318,94.423C362.95,109.963 358.493,116.892 357.923,120.561C356.46,129.979 340.298,131.782 345.783,138.26C348.299,141.23 352.252,139.638 353.078,144.567C353.533,147.278 356.306,146.126 362.542,151.456C367.406,155.615 366.765,156.209 367.08,162.56C367.123,163.43 367.914,163.116 371.685,172.427C372.868,175.349 368.188,183.752 379.499,184.359C379.551,184.362 383.224,182.852 383.692,185.444C384.511,189.984 379.559,185.832 376.219,190.27C375.217,191.602 372.038,205.472 374.783,208.217C375.999,209.434 379.688,208.408 378.314,212.429C377.946,213.505 377.653,220.056 377.768,220.402C379.934,226.936 390.996,218.438 393.062,223.614C393.342,224.317 396.332,231.807 396.334,232.5C396.338,233.678 393.379,235.254 394.315,237.573C395.338,240.107 395.453,239.995 396.314,242.576C398.545,249.261 395.491,249.653 397.685,256.426C398.61,259.284 395.498,267.8 397.784,270.261C401.375,274.127 401.911,273.911 401.905,275.49C401.873,284.672 404.122,284.274 404.999,293.458C405.209,295.652 409.273,308.16 409.685,309.426C411.621,315.385 404.256,324.196 404.079,326.444C403.598,332.549 403.1,332.428 403.032,338.496C403.008,340.736 402.12,341.401 402.079,342.444C401.661,352.974 403.696,354.448 399.422,356.349C396.914,357.465 396.95,360.378 395.316,365.426C394.648,367.486 395.848,367.67 394.316,372.426C393.488,374.998 393.201,390.68 391.383,381.572C391.061,379.958 390.281,363.999 384.421,366.346C381.117,367.669 379.19,382.957 379.001,384.458C378.553,388.015 378.274,387.913 378.001,391.458C377.972,391.839 377.099,393.925 377.079,394.444C376.979,397.03 377.652,398.424 376.403,403.457C375.791,405.923 376.069,408.523 374.707,406.333C373.848,404.954 372.826,384.948 366.779,390.784C363.584,393.869 362.155,408.846 362.001,410.458C361.711,413.502 361.287,413.389 361.016,416.459C360.702,420 360.133,419.894 360.37,423.492C360.618,427.247 358.249,426.116 358.196,425.668C358.064,424.547 358.342,407.376 355.581,406.351C348.02,403.544 349.814,411.623 346.316,422.426C345.24,425.746 347.277,430.473 342.422,432.318C341.602,432.629 338.913,433.652 336.314,441.424C333.341,450.319 333.256,450.715 332.506,450.48C331.001,450.009 332.533,444.36 327.551,444.99C323.196,445.541 324.514,461.126 321.458,460.741C317.343,460.223 315.887,458.977 313.65,464.577C313.176,465.766 302.597,473.52 304.658,468.554C307.62,461.417 306.861,460.515 313.605,456.664C314.89,455.93 333.507,424.594 338.231,419.269C339.429,417.918 341.472,412.817 347.21,406.25C349.344,403.808 348.724,403.365 351.214,401.22C352.164,400.402 355.061,393.145 355.35,392.423C356.388,389.821 357.428,390.388 357.995,387.551C358.781,383.622 363.697,381.324 355.397,376.668C352.798,375.21 353.567,374.084 349.426,372.688C348.225,372.283 343.701,373.604 337.548,367.452C331.126,361.029 337.339,356.364 330.603,352.332C327.252,350.326 328.09,349.158 324.423,347.683C318.299,345.218 320.486,343.223 317.318,335.574C315.987,332.359 319.275,330.244 316.393,328.694C305.657,322.918 306.128,329.12 303.606,330.664C300.512,332.559 287.085,344.583 286.35,346.423C284.75,350.428 283.666,349.554 280.784,352.739C280.313,353.259 279.786,356.112 278.259,357.22C272.369,361.491 271.883,361.004 268.059,367.211C265.266,371.747 267.852,364.95 263.686,352.424C261.029,344.439 259.691,345.268 257.78,343.26C253.686,338.955 243.384,316.122 236.789,312.059C235.916,311.522 236.104,308.301 243.426,310.684C253.084,313.828 253.852,313.122 254.514,312.514C254.906,312.153 256.057,309.561 256.174,309.296C257.257,306.857 255.257,306.462 245.574,303.316C244.143,302.851 236.782,303.258 235.426,302.682C227.288,299.226 213.245,294.122 213.235,293.481C213.221,292.594 215.048,294.924 222.739,287.784C226.447,284.341 239.296,290.652 240.603,291.294C245.201,293.553 248.495,290.127 249.44,290.079C263.565,289.374 267.087,298.902 268.657,293.563C269.247,291.556 268.901,291.549 269.666,289.577C271.34,285.264 263.433,285.537 256.574,283.316C248.393,280.666 244.979,288.585 238.261,282.784C237.122,281.801 222.235,277.243 215.78,284.741C211.151,290.117 203.592,289.781 201.318,295.423C201.064,296.052 199.454,300.045 195.575,301.65C194.748,301.992 191.631,301.833 190.766,302.772C187.154,306.69 184.117,305.175 184.741,310.461C185.014,312.773 179.901,312.005 173.269,317.219C172.371,317.925 158.66,324.988 155.705,330.611C149.58,342.269 136.953,363.835 143.338,375.599C143.896,376.629 145.895,377.597 145.768,379.591C145.187,388.643 147.964,390.656 148.742,391.22C155.714,396.274 154.378,397.631 160.861,403.297C162.433,404.67 157.274,407.776 154.736,405.259C151.647,402.196 151.74,402.217 149.22,398.742C147.305,396.101 141.249,396.733 143.629,387.553C145.425,380.623 142.26,379.328 141.614,379.064C138.748,377.892 140.765,375.245 138.58,374.352C131.142,371.308 132.459,369.732 132.016,366.552C131.63,363.773 127.43,365.399 128.687,361.574C132.039,351.367 131.032,340.427 122.78,349.741C120.703,352.085 120.425,352.602 117.623,351.307C115.123,350.151 121.58,343.779 122.999,332.542C123.043,332.194 124.429,329.149 123.529,328.472C121.845,327.207 120.35,327.282 121.755,325.708C124.877,322.212 123.635,321.083 127.605,318.671C128.091,318.376 128.626,318.051 132.22,313.26C142.868,299.065 162.56,279.025 155.563,277.334C152.676,276.636 153.986,278.972 149.781,283.741C149.021,284.602 149.148,284.688 141.219,295.259C137.147,300.689 136.834,300.347 132.78,305.74C131.857,306.969 125.951,314.827 120.782,320.742C120.251,321.35 114.383,333.21 114.023,327.578C113.978,326.868 123.883,307.624 115.5,307.635C112.432,307.639 105.656,316.278 108.677,307.572C112.22,297.364 115.794,296.905 111.458,290.533C110.277,288.797 113.346,286.31 113.923,282.561C114.394,279.494 115.26,278.916 112.612,277.296C109.942,275.661 111.703,269.671 106.61,272.707C103.102,274.799 107.098,277.47 103.606,279.665C96.649,284.038 90.615,290.705 93.886,283.576C95.809,279.385 95,279.068 101.297,266.397C104.406,260.143 103.919,260.011 106.238,253.408C108.056,248.231 94.817,252.306 97.318,246.426C97.759,245.389 105.136,228.039 97.425,232.349C94.633,233.91 90.161,235.175 86.396,246.457C86.149,247.196 81.383,261.474 80.888,254.49C80.865,254.161 83.978,245.201 84.257,244.397C85.949,239.526 89.878,236.496 90.995,230.549C91.464,228.054 91.807,227.638 89.612,226.296C86.682,224.504 87.989,223.789 88.8,220.446C88.468,210.538 85.002,212.564 83.544,212.754C79.284,213.312 89.34,192.517 79.443,195.35C77.555,195.891 69.083,208.45 70.853,202.556C74.205,191.391 79.966,184.078 76.518,180.482C72.669,176.469 67.739,191.365 66.805,186.45C66.31,183.844 67.773,184.139 68.996,177.55C69.006,177.494 76.677,163.858 70.555,163.078C64.098,162.256 59.697,182.669 58.801,175.454C58.522,173.206 60.34,169.978 60.582,169.548C61.18,168.485 60.986,168.407 66.681,155.574C67.797,153.06 67.418,147.486 62.425,149.319C58.668,150.699 60.345,153.305 53.781,160.741C49.791,165.261 49.06,172.372 47.882,166.461C47.708,165.588 49.017,165.817 49.999,155.542C50.227,153.156 56.665,137.961 48.539,139C44.817,139.475 39.682,156.211 39.662,149.471C39.65,145.275 42.079,145.903 42.927,138.551C43.364,134.756 49.184,124.129 38.424,128.35C37.506,128.71 35.473,131.897 34.782,127.418C34.472,125.407 36.708,122.327 33.363,122.293C32.245,122.282 31.434,134.74 27.706,128.391C25.037,123.844 33.843,94.589 20.574,98.697C16.608,99.925 16.246,89.768 15.681,88.426C14.077,84.611 13.314,83.08 17.453,82.324C21.617,81.563 22.866,87.801 22.996,88.449C24.033,93.63 34.615,94.485 37.221,97.742C43.916,106.108 50.621,106.978 50.921,110.44C50.974,111.053 49.999,117.457 55.457,117.001C57.944,116.794 57.793,113.427 61.601,115.297C70.575,119.705 69.854,121.676 76.449,122.995C76.633,123.032 84.736,126.948 86.292,129.61C87.076,130.952 86.639,132.204 88.737,134.259C91.44,136.907 92.706,132.811 95.729,135.215C98.575,137.477 98.965,136.769 101.741,139.219C103.201,140.509 117.918,144.197 119.944,149.385C120.58,151.016 123.45,152.886 121.086,155.003C118.803,157.048 119.584,161.857 119.681,162.456C119.857,163.537 112.437,171.106 119.61,175.292C123.966,177.834 127.432,173.445 125.156,170.671C123.357,168.479 129.112,167.873 127.685,164.427C126.288,161.054 125.886,160.929 126.426,160.442C126.992,159.932 127.902,159.967 128.515,159.514C129.832,158.542 126.81,153.702 131.461,154.665C133.018,154.987 136.297,155.666 139.413,136.447L141.412,137.547C148.033,150.657 150.617,134.335 151.472,133.471C153.307,131.619 155.811,136.333 158.297,131.396C160.749,126.526 160.525,126.536 162.294,121.412C162.376,121.175 163.446,118.074 164.629,119.319C165.17,119.889 165.048,120.861 165.484,121.515C166.535,123.093 171.422,122.308 173.666,126.398C179.879,137.724 197.483,159.958 196.232,163.404C195.801,164.589 193.393,167.399 197.475,167.271C200.409,167.178 200.711,173.232 203.519,170.519C204.058,169.998 204.268,165.731 203.681,164.426C201.063,158.6 201.739,158.293 197.781,153.269C192.434,146.481 192.081,146.789 187.668,139.397C185.369,135.545 184.803,135.957 180.668,128.397C179.865,126.93 170.57,118.658 173.423,116.404C174.683,115.408 178.555,121.499 181.682,113.577C183.757,108.321 184.384,106.212 184.578,105.558L185.5,105.727C185.898,105.656 185.806,104.814 186.203,104.742C186.504,104.688 185.081,105.604 187.78,108.214C192.677,112.949 197.289,98.477 198.711,95.715Z" style="fill:rgb(254,254,254);fill-rule:nonzero;"/>
        </g>
        <g transform="matrix(0.912945,0,0,0.912945,-6.114668,21.710032)">
            <path d="M116.966,237.5C116.293,227.853 110.313,225.101 114.457,220.459C119.877,214.386 122.019,219.579 122.728,220.223C123.086,220.548 123.393,220.827 128.577,218.683C135.132,215.971 135.334,211.956 135.181,211.712C134.255,210.23 128.027,209.396 126.99,205.436C125.82,200.968 121.858,200.324 123.441,198.461C123.703,198.152 125.397,196.159 127.423,195.35C132.907,193.16 133.769,189.697 143.426,185.319C147.817,183.328 147.792,185.79 148.079,190.556C148.345,194.984 157.704,196.526 160.259,198.781C161.114,199.535 165.518,203.418 174.426,200.316C179.148,198.671 179.11,203.214 181.304,202.185C184.276,200.791 184.281,201.126 187.556,200.921C188.836,200.841 195.815,197.675 198.261,199.784C204.359,205.043 206.265,199.85 213.425,203.655C215.121,204.556 217.389,201.965 220.394,203.696C223.266,205.35 219.667,207.712 222.61,209.297C229.009,212.741 229.394,212.452 234.426,210.319C238.593,208.552 241.637,212.722 246.603,209.669C261.948,200.233 264.979,191.591 270.779,198.215C271.634,199.191 276.029,200.024 278.668,195.603C283.506,187.499 293.646,175.765 299.397,172.332C311.03,165.388 316.223,158.256 319.542,157.999C327.786,157.361 327.778,157.403 335.427,154.315C337.307,153.557 341.268,155.823 341.342,157.512C341.557,162.45 331.517,165.544 322.397,170.332C317.877,172.705 319.114,174.319 314.57,176.604C309.621,179.094 317.196,179.038 317.5,179.036C321.846,179.004 323.333,180.598 324.458,180.738C326.539,180.996 325.996,175.467 330.575,177.35C335.276,179.283 334.909,180.418 342.56,181.08C343.788,181.186 347.639,185.099 349.06,181.39C350.869,176.673 353.221,177.93 355.668,182.397C357.411,185.581 357.562,185.429 360.258,187.78C369.002,195.405 359.596,207.284 361.315,212.574C363.897,220.517 362.778,220.963 358.477,225.48C357.745,226.248 358.354,228.672 356.606,229.664C346.999,235.119 344.544,235.94 343.424,236.314C326.337,242.026 325.787,239.603 324.425,240.35C320.642,242.424 320.533,241.947 316.424,243.314C309.622,245.577 299.867,241.553 294.426,243.315C287.191,245.659 286.836,245.066 281.272,250.223C277.684,253.547 277.056,244.194 276.374,243.696C269.139,238.411 273.958,236.76 277.685,228.573C278.182,227.48 276.489,219.81 273.456,220.317C268.911,221.076 269.17,219.154 269.406,214.51C269.46,213.438 267.604,210.841 257.261,220.216C256.949,220.499 254.489,222.729 252.006,219.912C250.485,218.187 243.838,220.828 242.457,221.001C240.757,221.214 239.742,220.251 238.314,224.424C236.28,230.369 234.161,226.047 228.45,224.996C222.541,223.908 223.375,222.009 216.424,219.686C209.517,217.377 209.868,215.2 206.426,216.315C202.302,217.652 201.303,217.909 198.329,225.453C196.733,229.501 206.457,230.217 205.673,234.546C204.538,240.812 205.416,240.886 205.231,241.403C200.534,254.54 193.614,255.379 191.423,256.317C163.5,268.284 164.089,269.855 161.458,270.001C153.069,270.465 153.137,270.904 152.453,270.671C138.419,265.878 134.109,255.053 132.581,254.351C131.738,253.963 129.948,253.14 122.741,248.219C117.373,244.555 117.461,244.033 116.966,237.5Z" style="fill-rule:nonzero;"/>
        </g>
        <g transform="matrix(0.912945,0,0,0.912945,-6.114668,21.710032)">
            <path d="M151.5,377.273C151.103,377.345 151.194,378.186 150.797,378.258C150.13,378.378 148.17,364.896 148.312,364.428C150.241,358.08 150.427,354.212 152.706,349.603C158.968,336.938 158.877,336.911 161.219,334.259C163.598,331.566 163.426,331.408 166.603,329.668C167.405,329.228 167.275,329.157 175.729,322.785C181.011,318.803 205.855,314.56 209.426,313.315C211.02,312.76 213.94,313.442 217.426,312.315C218.289,312.037 220.15,311.435 228.574,314.318C237.306,317.307 246.134,340.846 252.22,347.74C254.937,350.819 253.506,351.664 256.22,354.74C262.099,361.407 257.92,369.288 257.332,370.398C254.286,376.142 254.23,376.064 249.781,380.741C249.152,381.401 250.002,382.054 242.781,389.741C240.274,392.409 241.322,393.156 238.542,395.544C233.982,399.46 233.531,398.668 227.542,398.999C226.852,399.037 225.657,400.771 220.423,398.683C201.827,391.262 196.254,396.389 194.741,397.781C190.92,401.295 190.828,401.333 185.542,401.999C182.511,402.381 182.575,402.985 179.549,402.327C176.573,401.68 176.518,402.277 173.574,401.316C173.235,401.205 167.611,400.744 163.779,396.259C160.829,392.806 153.794,387.356 158.586,388.165C159.192,388.267 159.027,388.502 165.397,391.704C171.279,394.662 170.903,395.857 177.496,396.032C181.84,396.147 192.709,390.124 193.664,388.606C199.188,379.825 199.699,379.906 200.999,369.542C202.215,359.844 205.232,355.753 191.574,351.316C184.738,349.095 158.986,356.124 152.422,377.442L151.5,377.273Z" style="fill:white;fill-rule:nonzero;"/>
        </g>
        <g transform="matrix(0.912945,0,0,0.912945,-6.114668,21.710032)">
            <path d="M188.5,409.034C195.481,408.373 194.523,406.151 200.622,402.741C203.118,401.345 204.648,399.981 204.763,401.391C204.933,403.461 199.308,405.474 197.365,408.418C195.166,411.749 194.984,411.486 192.083,414.244C190.762,415.499 192.041,417.089 194.374,415.345C194.702,415.101 198.233,412.461 199.235,413.776C205.139,421.533 205.7,421.087 210.332,429.602C212.542,433.667 213.71,432.965 216.35,439.577C216.523,440.01 217.329,439.517 219.35,444.577C221.244,449.321 235.123,455.197 236.542,456.456C240.802,460.241 253.732,469.332 251.223,472.272C248.441,475.532 243.499,485.001 243.844,480.448C243.882,479.947 245.028,480.35 245.976,474.54C248.409,459.634 239.031,468.121 238.332,469.397C236.947,471.93 234.915,476.946 227.551,479.825C222.532,481.788 237.807,453.718 226.555,454.999C223.64,455.331 217.17,465.825 216.603,465.918C208.694,467.218 213.913,457.711 213.921,457.556C213.953,456.91 214.28,450.342 213.523,449.48C209.507,444.906 205.066,452.962 204.689,453.646C202.165,458.225 200.761,445.52 196.427,447.315C195.45,447.72 194.55,448.294 193.583,448.721C188.07,451.153 196.758,434.982 188.496,435.098C183.894,435.163 179.957,449.138 179.221,444.65C179.173,444.359 184.484,427.092 172.414,435.361C172.038,435.619 167.765,443.868 168.751,437.505C169.319,433.834 170.278,434.007 170.002,427.543C169.857,424.135 164.538,425.735 164.63,423.486C164.843,418.318 167.205,418.602 166.324,413.544C166.31,413.461 167.117,407.678 167.435,407.42C168.772,406.338 176.931,411.096 182.426,409.315C182.889,409.165 182.875,409.295 188.5,409.034Z" style="fill:white;fill-rule:nonzero;"/>
        </g>
        <g transform="matrix(0.912945,0,0,0.912945,-6.114668,21.710032)">
            <path d="M243.856,402.04C243.719,399.884 244.366,400.092 250.669,390.603C255.482,383.356 254.013,392.561 257.319,400.574C259.697,406.339 262.559,404.635 263.5,404.635C270.186,404.633 268.984,400.677 275.561,399.921C279.128,399.511 276.899,395.935 279.087,394.006C281.154,392.184 276.63,382.763 278.314,377.429C279.272,374.393 277.941,374.628 275.783,372.262C274.247,370.578 275.864,367.66 277.5,367.662C278.308,367.662 289.585,378.265 289.664,378.394C296.884,390.188 304.117,381.346 304.737,380.782C306.367,379.296 306.561,380.384 308.476,381.53C316.702,386.45 325.286,365.442 325.318,365.379C327.686,360.824 327.631,366.259 330.782,370.27C335.119,375.791 324.228,379.491 321.741,381.781C306.889,395.454 306.61,395.137 305.463,396.464C302.978,399.338 303.239,400.248 301.427,399.694C297.533,398.505 297.258,398.198 297.003,397.915C296.211,397.033 282.302,389.595 289.316,410.575C289.949,412.467 291.713,417.745 291.001,435.458C290.887,438.304 287.703,439.094 286.27,440.218C284.594,441.533 275.821,445.446 280.751,439.703C284.982,434.773 285.713,426.857 286.318,425.426C288.306,420.723 287.229,420.617 287.023,415.502C286.678,406.918 271.6,414.447 269.423,415.318C255.939,420.711 260.846,427.013 256.22,432.26C252.284,436.722 254.248,442.022 251.297,438.861C247.889,435.211 246.199,435.616 247.315,432.426C248.846,428.051 246.846,427.773 248.313,423.428C249.116,421.052 248.092,421.086 248.037,418.507C247.811,408.011 250.152,405.007 243.856,402.04Z" style="fill:white;fill-rule:nonzero;"/>
        </g>
        <g transform="matrix(0.912945,0,0,0.912945,-6.114668,21.710032)">
            <path d="M249.034,363.5C248.637,370.329 248.139,370.163 245.65,376.577C244.265,380.147 230.861,388.044 225.741,383.219C222.634,380.292 223.014,380.012 219.741,377.22C216.742,374.663 217.743,373.671 214.397,371.668C213.453,371.103 204.681,362.74 203.454,357.511C202.742,354.472 201.72,354.552 202.685,351.574C202.735,351.419 202.924,345.823 205.742,343.78C210.992,339.975 211.411,339.284 217.423,341.683C219.075,342.342 237.748,345.03 248.216,357.739C249.001,358.691 248.676,358.776 249.034,363.5Z" style="fill-rule:nonzero;"/>
        </g>
        <g transform="matrix(0.912945,0,0,0.912945,-6.114668,21.710032)">
            <path d="M297.5,445.034C298.422,444.929 303.73,444.325 308.603,441.668C311.485,440.096 319.704,427.952 320.004,426.449C321.69,418.027 329.478,407.291 332.269,405.22C340.606,399.034 341.512,398.596 342.401,398.167C342.941,397.906 345.778,397.228 343.954,399.693C336.33,410.003 336.956,410.425 336.22,411.26C326.549,422.214 318.686,440.627 304.26,454.22C302.311,456.055 287.689,459.891 286.456,459.676C279.263,458.424 266.764,466.579 266.577,466.651C257.961,469.977 258.069,466.672 255.22,462.742C254.524,461.782 254.144,462.19 244.261,452.784C243.844,452.387 239.912,451.253 238.74,450.22C233.698,445.768 230.08,445.931 225.78,441.26C222.397,437.583 226.48,435.729 227.296,434.384C230.505,429.097 237.709,439.188 241.423,440.682C246.706,442.808 245.932,443.808 248.781,447.259C252.241,451.452 253.658,450.569 255.271,451.785C261.032,456.127 266.206,454.853 266.575,454.65C272.626,451.329 272.644,451.29 278.556,450.921C282.238,450.691 291.992,444.934 297.5,445.034Z" style="fill:white;fill-rule:nonzero;"/>
        </g>
        <g transform="matrix(0.912945,0,0,0.912945,-6.114668,21.710032)">
            <path d="M150.958,220.864C151.306,220.993 152,220.128 153.251,221.714C153.292,221.766 153.613,222.172 153.672,222.437C154.358,225.479 149.966,225.184 151.079,246.556C151.39,252.518 160.952,258.708 164.444,258.902C172.943,259.374 163.331,262.991 157.5,262.966C148.525,262.926 147.877,262.439 140.219,251.741C135.623,245.32 120.605,244.562 124.314,233.424C124.532,232.77 125.713,229.225 130.423,227.349C135.319,225.399 134.69,224.388 139.427,222.315C142.328,221.046 146.679,228.935 150.958,220.864Z" style="fill:white;fill-rule:nonzero;"/>
        </g>
        <g transform="matrix(0.912945,0,0,0.912945,-6.114668,21.710032)">
            <path d="M194.966,364.5C195.062,383.368 187.033,385.612 177.574,388.685C177.22,388.8 169.117,389.928 176.258,384.221C180.713,380.661 175.595,374.946 172.332,380.397C168.483,386.825 165.467,382.545 166.315,380.427C167.542,377.361 168.734,377.097 167.223,375.765C160.47,369.807 168.292,365.793 173.74,360.78C176.229,358.491 184.913,355.687 189.574,357.315C195.782,359.484 194.688,360.923 194.966,364.5Z" style="fill:white;fill-rule:nonzero;"/>
        </g>
        <g transform="matrix(0.912945,0,0,0.912945,-6.114668,21.710032)">
            <path d="M383.5,35.966C380.179,36.381 379.887,36.478 378.65,39.577C377.919,41.409 373.965,43.367 373.336,44.394C371.06,48.11 368.989,49.297 368.332,50.397C360.459,63.585 351.369,64.693 346.741,68.781C346.079,69.365 340.741,74.079 336.426,72.685C333.496,71.738 333.475,73.167 330.454,72.68C327.173,72.15 327.019,72.592 326.928,72.323C326.214,70.216 333.694,65.751 334.397,65.332C342.74,60.352 342.619,58.608 348.739,52.784C349.129,52.413 351.836,51.602 352.261,51.216C365.828,38.908 382.841,28.457 384.74,26.78C390.384,21.798 388.198,31.258 388.402,34.497C388.483,35.787 388.18,36.409 383.5,35.966Z" style="fill:white;fill-rule:nonzero;"/>
        </g>
        <g transform="matrix(0.912945,0,0,0.912945,-6.114668,21.710032)">
            <path d="M242.966,365.5C243.138,374.982 232.879,379.062 229.739,376.216C223.523,370.583 204.764,356.524 211.78,349.785C214.24,347.423 214.983,350.757 219.427,349.315C223.909,347.86 223.463,350.796 236.577,355.318C237.015,355.469 237.447,355.618 241.217,358.782C242.577,359.923 242.927,364.946 242.966,365.5Z" style="fill:white;fill-rule:nonzero;"/>
        </g>
        <g transform="matrix(0.912945,0,0,0.912945,-6.114668,21.710032)">
            <path d="M342.034,209.5C341.407,202.85 338.933,199.877 332.784,193.261C331.393,191.764 332.488,191.219 331.092,189.671C328.876,187.213 335.224,188.033 335.603,188.082C336.042,188.138 340.976,196.923 344.221,193.214C348.413,188.423 351.534,192.881 355.22,196.74C359.937,201.681 352.059,209.678 351.999,210.543C351.417,218.861 351.006,218.823 351.073,219.544C351.665,225.876 346.265,227.362 340.424,229.314C332.384,232.002 332.18,231.244 331.519,231.566C323.654,235.391 338.23,222.388 338.664,221.605C341.416,216.637 341.948,210.501 342.034,209.5Z" style="fill:white;fill-rule:nonzero;"/>
        </g>
        <g transform="matrix(0.912945,0,0,0.912945,-6.114668,21.710032)">
            <path d="M228.966,147.5C228.705,142.802 228.81,142.813 228.685,142.426C227.069,137.438 228.499,121.956 228.248,120.567C227.788,118.016 228.597,118.133 228.921,115.556C229.976,107.18 235.852,95.731 239.449,95.177C242.687,94.678 239.921,96.594 238.355,99.412C235.902,103.827 235.941,107.785 235.685,108.574C233.201,116.211 232.903,116.212 233.037,137.507C233.056,140.562 234.004,140.342 234.034,143.5C234.117,151.986 235.154,151.821 236.001,158.542C237.029,166.707 247.182,186.68 237.425,182.65C234.554,181.464 233.98,172.381 233.921,171.444C233.891,170.958 230.562,166.086 228.966,147.5Z" style="fill-rule:nonzero;"/>
        </g>
        <g transform="matrix(0.912945,0,0,0.912945,-6.114668,21.710032)">
            <path d="M288.034,225.5C288.346,219.937 287.461,219.366 291.471,215.464C293.386,213.601 296.268,219.243 298.506,217.508C302.959,214.057 300.434,219.423 301.319,221.574C306.371,233.866 327.148,230.561 320.275,234.074C311.818,238.396 311.021,235.58 298.444,236.079C297.923,236.1 295.87,236.962 295.458,237.001C292.425,237.291 292.531,237.614 289.458,238.001C286.34,238.394 286.546,238.843 283.551,239.825C280.873,240.704 283.566,233.974 283.784,233.739C287.068,230.202 287.576,230.356 288.034,225.5Z" style="fill:white;fill-rule:nonzero;"/>
        </g>
        <g transform="matrix(0.912945,0,0,0.912945,-6.114668,21.710032)">
            <path d="M325.488,300.964C329.981,302.097 328.579,305.122 338.397,311.669C352.598,321.138 362.281,331.518 368.578,334.349C368.944,334.513 368.583,334.867 372.606,337.335C374.834,338.702 374.292,339.312 376.58,340.344C376.878,340.479 384.251,347.437 388.404,346.25C388.616,346.19 397.458,345.992 389.601,348.743C389.086,348.924 384.31,353.224 351.259,326.781C334.507,313.378 329.198,311.532 326.665,307.394C326.059,306.404 317.139,304.311 320.766,300.771C321.4,300.152 321.519,300.428 325.488,300.964Z" style="fill-rule:nonzero;"/>
        </g>
        <g transform="matrix(0.912945,0,0,0.912945,-6.114668,21.710032)">
            <path d="M399.403,279.561C399.393,280.091 399.384,280.621 399.374,281.151C397.249,280.315 397.154,280.584 395.653,279.31C390.612,275.031 376.905,266.365 376.74,266.22C372.176,262.189 349.998,250.433 344.428,252.313C338.819,254.207 339.712,247.52 342.407,247.086C346.779,246.382 351.799,248.055 352.576,248.314C370.776,254.381 381.545,264.77 386.397,267.667C395.047,272.833 395.193,275.733 399.403,279.561Z" style="fill-rule:nonzero;"/>
        </g>
        <g transform="matrix(0.912945,0,0,0.912945,-6.114668,21.710032)">
            <path d="M322.966,273.5C324.2,268.516 328.79,272.931 331.397,274.669C335.019,277.082 335.01,276.936 338.603,279.331C339.379,279.848 358.624,294.327 358.665,294.394C362.731,301.017 367.102,300.218 369.225,302.738C374.9,309.474 384.78,312.203 384.803,313.525C384.877,317.629 370.332,307.608 369.214,306.838C357.069,298.471 357.056,298.628 345.259,289.781C334.604,281.79 334.319,282.308 333.459,281.543C327.052,275.854 324.185,278.322 322.966,273.5Z" style="fill-rule:nonzero;"/>
        </g>
        <g transform="matrix(0.912945,0,0,0.912945,-6.114668,21.710032)">
            <path d="M369.966,136.5C370.263,139.653 370.391,139.548 371.67,142.419C372.157,143.514 370.944,147.679 364.259,141.781C361.168,139.054 353.441,138.418 356.783,134.738C361.434,129.617 360.078,128.76 364.215,123.271C366.558,120.162 366.193,112.647 368.656,113.284C368.773,113.315 371.989,126.829 370.685,130.574C369.627,133.611 370,136.006 369.966,136.5Z" style="fill:white;fill-rule:nonzero;"/>
        </g>
        <g transform="matrix(0.912945,0,0,0.912945,-6.114668,21.710032)">
            <path d="M255.966,150.5C256.098,148.961 257.182,136.337 265.592,133.762C265.97,133.646 273.198,134.381 265.611,138.705C258.962,142.495 259.328,171.958 260.688,176.428C261.623,179.502 258.589,180.568 256.421,179.65C255.011,179.053 254.97,173.084 254.966,172.5C254.901,163.185 254.078,163.201 254.312,162.428C255.387,158.892 255.899,151.461 255.966,150.5Z" style="fill-rule:nonzero;"/>
        </g>
        <g transform="matrix(0.912945,0,0,0.912945,-6.114668,21.710032)">
            <path d="M302.579,340.609C302.943,340.159 304.946,337.676 308.423,336.342C313.64,334.339 311.274,343.496 315.215,348.729C316.422,350.332 315.257,352.035 319.423,353.668C321.174,354.355 321.27,354.759 320.344,356.411C317.963,360.657 321.059,362.553 317.782,366.73C317.589,366.976 314.778,373.531 312.735,372.206C311.785,371.589 310.687,364.491 310.65,364.425C307.154,358.141 309.308,357.774 309.999,350.542C310.22,348.226 311.369,348.331 310.755,342.466C310.501,340.045 306.946,339.501 306.535,339.439C304.842,339.18 305.269,340.046 304.247,341.503C304.14,341.395 304.123,341.437 302.579,340.609Z" style="fill:white;fill-rule:nonzero;"/>
        </g>
        <g transform="matrix(0.912945,0,0,0.912945,-6.114668,21.710032)">
            <path d="M317.261,395.261C319.62,392.463 319.499,392.48 322.259,390.22C326.749,386.545 332.796,382.973 334.453,382.329C335.653,381.862 341.38,385.338 341.375,386.502C341.364,388.99 314.263,404.971 313.28,399.569C313.196,399.108 313.121,398.697 317.261,395.261Z" style="fill:white;fill-rule:nonzero;"/>
        </g>
        <g transform="matrix(0.912945,0,0,0.912945,-6.114668,21.710032)">
            <path d="M264.828,431.425C266.443,425.175 270.87,424.554 271.261,424.216C271.731,423.81 276.547,419.647 278.525,421.471C281.026,423.778 276.223,434.254 276.216,434.261C270.878,440.434 271.629,442.367 263.491,442.998L261.073,442.09C263.078,438.625 262.998,438.571 266.26,436.222C268.739,434.437 268.431,433.22 265.596,432.142C265.34,431.903 265.084,431.664 264.828,431.425Z" style="fill:white;fill-rule:nonzero;"/>
        </g>
        <g transform="matrix(0.912945,0,0,0.912945,-6.114668,21.710032)">
            <path d="M284.5,467.034C291.554,467.003 294.904,466.108 294.915,468.488C294.919,469.198 293.225,473.93 291.459,473.716C288.829,473.397 288.96,472.513 285.555,472.928C277.953,473.856 276.732,487.833 274.883,479.396C274.14,476.007 268.435,480.604 268.594,477.49C268.83,472.889 270.158,473.45 275.476,469.471C278.139,467.478 283.754,467.086 284.5,467.034Z" style="fill:white;fill-rule:nonzero;"/>
        </g>
        <g transform="matrix(0.912945,0,0,0.912945,-6.114668,21.710032)">
            <path d="M302.579,340.609C304.123,341.437 304.14,341.395 304.247,341.503C303.758,355.344 300.706,356.03 302.724,361.419C305.328,368.37 288.741,356.485 292.207,352.271C297.187,346.214 297.642,346.687 302.579,340.609Z" style="fill:white;fill-rule:nonzero;"/>
        </g>
        <g transform="matrix(0.912945,0,0,0.912945,-6.114668,21.710032)">
            <path d="M298.034,426.5C297.934,417.809 298.16,417.869 296.914,410.452C296.135,405.814 299.111,408.824 303.576,410.314C308.985,412.119 305.92,414.044 305.319,415.426C304.306,417.754 305.194,417.904 304.316,420.426C301.046,429.808 307.502,433.094 302.457,434.003C297.004,434.985 298.388,432.029 298.034,426.5Z" style="fill:white;fill-rule:nonzero;"/>
        </g>
        <g transform="matrix(0.912945,0,0,0.912945,-6.114668,21.710032)">
            <path d="M188.04,281.501C186.199,292.382 179.075,296.174 178.006,301.449C177.374,304.569 175.468,303.404 174.369,306.445C171.502,314.373 168.968,312.017 168.96,311.429C168.954,311.038 182.538,284.262 183.814,282.741C183.954,282.575 186.254,279.834 183.596,280.043C182.852,280.101 182.199,280.619 181.458,280.709C178.704,281.043 184.73,272.744 186.275,273.782C186.801,274.135 186.477,274.291 188.04,281.501Z" style="fill-rule:nonzero;"/>
        </g>
        <g transform="matrix(0.912945,0,0,0.912945,-6.114668,21.710032)">
            <path d="M216.966,412.5C216.369,421.152 214.601,422.213 220.876,428.236C224.457,431.672 219.429,430.478 218.417,429.597C217.942,429.183 218.753,428.568 213.733,423.263C212.87,422.351 214.122,421.443 207.78,414.26C203.918,409.884 207.342,409.588 211.738,405.783C213.483,404.272 215.046,405.6 215.261,405.783C218.07,408.17 216.734,408.775 216.966,412.5Z" style="fill:white;fill-rule:nonzero;"/>
        </g>
        <g transform="matrix(0.912945,0,0,0.912945,-6.114668,21.710032)">
            <path d="M270.964,382.493C271.425,386.556 271.877,386.612 270.319,390.426C269.948,391.332 270.988,396.07 265.55,396.922C260.331,397.74 258.741,385.218 263.423,383.35C266.957,381.939 266.196,381.153 267.946,377.785C269.846,374.127 270.905,382.049 270.964,382.493Z" style="fill:white;fill-rule:nonzero;"/>
        </g>
        <g transform="matrix(0.912945,0,0,0.912945,-6.114668,21.710032)">
            <path d="M240.968,426.505C240.583,429.171 240.947,430.739 238.425,429.694C229.796,426.118 231.155,421.891 236.78,414.74C240.569,409.925 242.911,415.067 241.685,418.574C240.696,421.401 242.218,421.539 241.313,424.428C241.263,424.589 241.288,424.582 240.968,426.505Z" style="fill:white;fill-rule:nonzero;"/>
        </g>
        <g transform="matrix(0.912945,0,0,0.912945,-6.114668,21.710032)">
            <path d="M186.053,243.4C186.97,240.756 186.971,238.525 189.572,239.301C192.913,240.297 193.432,238.409 195.541,237.65C197.912,236.797 196.228,240.969 196.327,241.546C197.307,247.217 195.214,247.78 185.436,251.34C179.818,253.385 183.945,248.947 186.053,243.4Z" style="fill:white;fill-rule:nonzero;"/>
        </g>
        <g transform="matrix(0.912945,0,0,0.912945,-6.114668,21.710032)">
            <path d="M223.034,409.5C223.177,408.077 222.334,404.287 226.429,405.686C228.391,406.356 236.72,405.17 233.879,407.708C231.359,409.958 226.709,420.274 225.297,421.194C221.252,423.83 222.981,410.056 223.034,409.5Z" style="fill:white;fill-rule:nonzero;"/>
        </g>
        <g transform="matrix(0.912945,0,0,0.912945,-6.114668,21.710032)">
            <path d="M190.739,307.447L191.288,307.753C193.372,309 193.844,309.978 197.724,306.766C198.805,305.872 201.025,305.947 201.495,305.494C202.951,304.096 203.344,301.112 212.449,301.926C220.604,302.654 219.886,304.925 219.361,305.243C217.907,306.123 217.071,302.663 198.588,309.733C193.501,311.679 191.146,312.876 190.739,307.447Z" style="fill:rgb(251,251,251);fill-rule:nonzero;"/>
        </g>
        <g transform="matrix(0.912945,0,0,0.912945,-6.114668,21.710032)">
            <path d="M383.034,392.489C383.294,390.579 383.264,390.585 383.315,390.426C385.288,384.32 382.489,380.436 385.617,381.302C386.874,381.651 387.291,388.473 387.322,388.571C390.085,397.269 388.989,397.725 384.421,403.412C380.701,408.043 382.871,401.122 382.684,400.428C381.616,396.465 382.364,396.48 383.034,392.489Z" style="fill:white;fill-rule:nonzero;"/>
        </g>
        <g transform="matrix(0.912945,0,0,0.912945,-6.114668,21.710032)">
            <path d="M332.775,86.222C329.077,78.011 341.622,79.992 342.574,79.684C348.553,77.752 347.856,75.586 349.576,74.903C351.973,73.951 349.54,78.203 349.398,78.45C347.959,80.965 344.433,85.332 344.387,85.424C342.315,89.577 342.217,84.039 340.576,83.356C336.584,81.693 335.697,86.233 332.775,86.222Z" style="fill:white;fill-rule:nonzero;"/>
        </g>
        <g transform="matrix(0.912945,0,0,0.912945,-6.114668,21.710032)">
            <path d="M308.032,91.5C308.049,91.327 307.534,87.102 310.597,85.941C314.432,84.487 312.766,89.486 311.337,94.434C309.789,99.789 311.307,99.984 310.024,105.349C308.301,112.552 310.34,112.904 309.327,114.41C305.997,119.36 308.426,97.89 308.032,91.5Z" style="fill:rgb(250,250,250);fill-rule:nonzero;"/>
        </g>
        <g transform="matrix(0.912945,0,0,0.912945,-6.114668,21.710032)">
            <path d="M220.034,80.5C220.297,77.653 220.224,77.654 220.318,77.426C222.646,71.805 221.757,71.582 222.067,71.164C223.141,69.715 223.316,71.004 224.744,72.2C230.859,77.322 223.842,81.722 220.775,87.887C216.901,95.676 219.82,85.378 220.034,80.5Z" style="fill:white;fill-rule:nonzero;"/>
        </g>
        <g transform="matrix(0.912945,0,0,0.912945,-6.114668,21.710032)">
            <path d="M158.034,95.5C158.416,92.837 158.06,91.487 160.575,92.306C163.41,93.228 162.785,95.275 162.694,95.573C162.53,96.112 161.379,99.878 161.216,102.461C160.561,112.845 158.732,113.729 158.504,117.5C158.377,119.613 156.077,118.887 156.647,116.566C157.877,111.555 157.469,111.564 158.67,106.515C159.599,102.611 157.971,99.005 158.034,95.5Z" style="fill:white;fill-rule:nonzero;"/>
        </g>
        <g transform="matrix(0.912945,0,0,0.912945,-6.114668,21.710032)">
            <path d="M293.261,371.739C290.018,368.6 290.361,368.334 286.794,366.04C284.747,364.724 283.162,357.31 286.336,361.593C286.784,362.198 286.895,363.07 287.484,363.54C288.466,364.324 299.411,368.498 300.694,372.425C300.88,372.992 300.261,378.061 293.261,371.739Z" style="fill:white;fill-rule:nonzero;"/>
        </g>
        <g transform="matrix(0.912945,0,0,0.912945,-6.114668,21.710032)">
            <path d="M388.727,12.742C390.891,11.429 391.014,11.927 393.447,12.674C393.933,12.823 396.425,12.172 395.962,14.511C395.054,19.094 391.603,16.347 391.547,16.33C387.873,15.238 371.693,29.589 377.421,22.466C383.354,15.086 384.794,15.956 388.727,12.742Z" style="fill:white;fill-rule:nonzero;"/>
        </g>
        <g transform="matrix(0.912945,0,0,0.912945,-6.114668,21.710032)">
            <path d="M409.247,122.252C411.319,119.538 416.34,108.794 416.581,108.61C416.778,108.459 419.372,107.597 417.593,111.554C409.166,130.303 409.18,130.688 407.456,131.026C401.182,132.258 408.798,122.81 409.247,122.252Z" style="fill:white;fill-rule:nonzero;"/>
        </g>
        <g transform="matrix(0.912945,0,0,0.912945,-6.114668,21.710032)">
            <path d="M394.004,69.45C394.06,69.075 395.041,62.548 397.039,65.804C399.794,70.292 402.755,67.019 404.252,70.594C405.953,74.655 396.529,73.273 396.428,73.317C395.436,73.751 394.58,74.488 393.551,74.826C391.197,75.598 393.825,69.843 394.004,69.45Z" style="fill:white;fill-rule:nonzero;"/>
        </g>
        <g transform="matrix(0.912945,0,0,0.912945,-6.114668,21.710032)">
            <path d="M379.968,51.51C379.084,57.249 376.773,56.073 374.2,61.336C374.056,61.631 371.162,65.352 372.13,60.583C372.379,59.355 370.74,57.053 372.78,54.74C373.404,54.033 381.515,42.99 380.84,48.551C380.81,48.796 380.584,48.659 379.968,51.51Z" style="fill:white;fill-rule:nonzero;"/>
        </g>
        <g transform="matrix(0.912945,0,0,0.912945,-6.114668,21.710032)">
            <path d="M396.837,48.321C397.088,49.807 396.868,49.708 396.512,51.493C392.081,46.387 386.536,48.855 386.71,45.537C387,40.028 386.477,40.014 386.753,39.63C387.806,38.167 387.932,41.41 391.426,42.681C394.02,43.626 394.757,43.099 396.837,48.321Z" style="fill:white;fill-rule:nonzero;"/>
        </g>
        <g transform="matrix(0.912945,0,0,0.912945,-6.114668,21.710032)">
            <path d="M395.034,31.5C395.312,27.989 394.033,25.956 397.461,26.664C398.22,26.821 398.159,26.627 401.513,25.088C402.948,24.429 402.816,29.721 402.223,30.235C397.283,34.522 395.513,41.943 394.974,35.449C394.865,34.137 395.143,32.812 395.034,31.5Z" style="fill:white;fill-rule:nonzero;"/>
        </g>
        <g transform="matrix(0.912945,0,0,0.912945,-6.114668,21.710032)">
            <path d="M183.824,86.523C185.02,81.539 184.912,81.384 185.335,81.275C189.202,80.277 184.708,91.744 181.332,100.378C179.742,104.443 180.649,104.664 180.226,105.387C174.119,115.839 183.634,87.937 183.824,86.523Z" style="fill:white;fill-rule:nonzero;"/>
        </g>
        <g transform="matrix(0.912945,0,0,0.912945,-6.114668,21.710032)">
            <path d="M352.969,432.5C352.219,441.307 349.291,439.795 348.938,439.272C348.682,438.893 349.657,438.836 349.076,433.55C348.875,431.72 350.698,427.931 350.784,426.539C352.48,398.83 352.98,431.992 352.969,432.5Z" style="fill:white;fill-rule:nonzero;"/>
        </g>
        <g transform="matrix(0.912945,0,0,0.912945,-6.114668,21.710032)">
            <path d="M392.045,194.502C391.161,199.152 389.273,198.081 387.077,202.27C384.882,206.457 382.505,199.468 389.702,192.749C391.251,191.303 391.576,192.406 392.045,194.502Z" style="fill:white;fill-rule:nonzero;"/>
        </g>
        <g transform="matrix(0.912945,0,0,0.912945,-6.114668,21.710032)">
            <path d="M94.239,258.234C95.604,257.041 95.583,257.032 95.714,256.946C95.87,256.842 101.302,253.629 97.479,258.489C92.874,264.342 92.017,270.481 91.714,270.781C87.926,274.536 92.119,260.885 94.239,258.234Z" style="fill:white;fill-rule:nonzero;"/>
        </g>
        <g transform="matrix(0.912945,0,0,0.912945,-6.114668,21.710032)">
            <path d="M410.999,79.548C410.543,82.253 410.037,83.645 406.361,81.681C403.855,80.341 408.643,77.903 411.859,72.731C411.979,72.537 415.302,71.189 413.091,75.312C411.966,77.409 411.998,77.337 410.999,79.548Z" style="fill:white;fill-rule:nonzero;"/>
        </g>
        <g transform="matrix(0.912945,0,0,0.912945,-6.114668,21.710032)">
            <path d="M310.367,75.239C312.478,74.38 312.359,74.304 314.52,73.55C314.724,73.479 326.25,69.855 316.911,74.805C304.965,81.138 304.955,81.281 304.65,81.14C304.054,80.864 302.754,79.298 310.367,75.239Z" style="fill:white;fill-rule:nonzero;"/>
        </g>
        <g transform="matrix(0.912945,0,0,0.912945,-6.114668,21.710032)">
            <path d="M35.777,83.728C35.791,83.709 36.251,83.281 36.606,82.571C39.352,77.073 41.081,89.826 37.539,89.292C31.729,88.415 35.732,83.813 35.777,83.728Z" style="fill:white;fill-rule:nonzero;"/>
        </g>
        <g transform="matrix(0.912945,0,0,0.912945,-6.114668,21.710032)">
            <path d="M118.279,369.387C119.443,367.817 119.983,364.857 121.733,361.618C125.679,354.316 123.353,363.225 123.266,363.391C119.625,370.357 120.69,370.77 120.285,371.313C116.208,376.768 118.219,369.601 118.279,369.387Z" style="fill:white;fill-rule:nonzero;"/>
        </g>
        <g transform="matrix(0.912945,0,0,0.912945,-6.114668,21.710032)">
            <path d="M312.653,418.577C318.977,407.316 314.708,425.386 311.381,424.806C310.88,424.719 309.917,424.355 312.653,418.577Z" style="fill:white;fill-rule:nonzero;"/>
        </g>
        <g transform="matrix(0.912945,0,0,0.912945,-6.114668,21.710032)">
            <path d="M281.739,204.697C284.442,201.006 283.686,200.181 285.482,199.853C286.081,199.743 286.9,200.286 284.175,207.353C284.09,207.573 278.504,210.363 281.739,204.697Z" style="fill:white;fill-rule:nonzero;"/>
        </g>
        <g transform="matrix(0.912945,0,0,0.912945,-6.114668,21.710032)">
            <path d="M301.042,208.501C301.024,208.808 300.426,219.108 298.573,211.454C298.558,211.392 296.074,208.893 298.434,206.43C298.548,206.312 299.447,205.373 300.385,205.775C300.385,205.775 300.99,208.283 301.042,208.501Z" style="fill:white;fill-rule:nonzero;"/>
        </g>
        <g transform="matrix(0.912945,0,0,0.912945,-6.114668,21.710032)">
            <path d="M70.038,108.512C70.432,111.162 70.118,112.319 67.568,111.33C63.876,109.899 63.867,107.92 67.421,106.334C69.454,105.427 69.494,106.312 70.038,108.512Z" style="fill:white;fill-rule:nonzero;"/>
        </g>
        <g transform="matrix(0.912945,0,0,0.912945,-6.114668,21.710032)">
            <path d="M366.904,412.505C366.966,411.209 366.838,411.294 367.16,410.292C367.231,410.071 369.546,402.862 369.452,408.507C369.35,414.657 369.799,414.823 368.396,416.383C365.763,419.31 366.806,414.28 366.904,412.505Z" style="fill:white;fill-rule:nonzero;"/>
        </g>
        <g transform="matrix(0.912945,0,0,0.912945,-6.114668,21.710032)">
            <path d="M323.719,83.587C323.541,83.99 320.283,91.349 319.801,87.454C319.753,87.062 320.732,87.152 320.251,82.54C320.037,80.496 322.243,80.922 322.456,80.963C324.165,81.293 323.577,81.906 323.719,83.587Z" style="fill:white;fill-rule:nonzero;"/>
        </g>
        <g transform="matrix(0.912945,0,0,0.912945,-6.114668,21.710032)">
            <path d="M359.071,73.394C357.554,74.917 357.267,75.777 355.767,74.239C353.44,71.852 362.629,66.228 361.148,69.443C360.999,69.767 360.994,69.736 359.071,73.394Z" style="fill:white;fill-rule:nonzero;"/>
        </g>
        <g transform="matrix(0.912945,0,0,0.912945,-6.114668,21.710032)">
            <path d="M136.558,201.1C130.563,199.494 135.683,197.491 136.414,197.745C136.752,197.863 140.22,199.07 140.556,199.447C140.786,199.706 142.114,202.982 136.558,201.1Z" style="fill:white;fill-rule:nonzero;"/>
        </g>
        <g transform="matrix(0.912945,0,0,0.912945,-6.114668,21.710032)">
            <path d="M227.173,490.427C226.485,492.137 226.521,492.065 225.833,493.757C223.053,500.588 223.81,492.703 223.857,492.523C225.565,485.828 227.3,486.968 227.672,487.326C227.854,487.5 228.132,487.767 227.173,490.427Z" style="fill:white;fill-rule:nonzero;"/>
        </g>
        <g transform="matrix(0.912945,0,0,0.912945,-6.114668,21.710032)">
            <path d="M51.039,97.504C50.699,99.772 51.673,101.148 49.435,100.738C45.924,100.095 48.13,95.756 48.329,95.365C48.454,95.119 50.284,92.861 51.039,97.504Z" style="fill:white;fill-rule:nonzero;"/>
        </g>
        <g transform="matrix(0.912945,0,0,0.912945,-6.114668,21.710032)">
            <path d="M187.402,226.691C191.839,231.657 187.191,231.403 186.933,231.153C182.739,227.089 185.028,226.403 185.423,226.309C185.58,226.272 185.57,226.338 187.402,226.691Z" style="fill:rgb(254,254,254);fill-rule:nonzero;"/>
        </g>
        <g transform="matrix(0.912945,0,0,0.912945,-6.114668,21.710032)">
            <path d="M23.099,106.527C23.132,106.986 23.615,113.861 21.847,112.14C20.929,111.246 22.724,110.098 20.704,107.332C19.813,106.113 21.404,102.83 23.099,106.527Z" style="fill:rgb(215,215,215);fill-rule:nonzero;"/>
        </g>
        <g transform="matrix(0.912945,0,0,0.912945,-6.114668,21.710032)">
            <path d="M261.073,442.09L263.491,442.998C261.027,445.511 260.897,446.586 257.725,445.074C253.896,443.248 258.711,443.285 261.073,442.09Z" style="fill:rgb(231,231,231);fill-rule:nonzero;"/>
        </g>
        <g transform="matrix(0.912945,0,0,0.912945,-6.114668,21.710032)">
            <path d="M25.268,72.392C24.584,73.826 23.875,77.23 22.682,75.405C21.43,73.488 26.547,64.704 26.368,69.511C26.359,69.757 26.287,69.724 25.268,72.392Z" style="fill:rgb(233,233,233);fill-rule:nonzero;"/>
        </g>
        <g transform="matrix(0.912945,0,0,0.912945,-6.114668,21.710032)">
            <path d="M208.926,476.627C209.829,473.914 210.237,472.328 211.526,472.417C213.514,472.555 210.536,478.827 210.295,479.335C210.191,479.554 208.375,480.468 208.926,476.627Z" style="fill:rgb(242,242,242);fill-rule:nonzero;"/>
        </g>
        <g transform="matrix(0.912945,0,0,0.912945,-6.114668,21.710032)">
            <path d="M401.831,58.519C401.958,58.131 403.228,54.245 404.429,54.128C407.456,53.835 402.643,64.57 401.831,58.519Z" style="fill:rgb(249,249,249);fill-rule:nonzero;"/>
        </g>
        <g transform="matrix(0.912945,0,0,0.912945,-6.114668,21.710032)">
            <path d="M194.828,86.523C194.898,86.344 199.607,78.509 197.23,86.444C197.175,86.628 194.652,93.528 194.828,86.523Z" style="fill:rgb(242,242,242);fill-rule:nonzero;"/>
        </g>
        <g transform="matrix(0.912945,0,0,0.912945,-6.114668,21.710032)">
            <path d="M396.837,48.321C399.402,49.336 401.941,48.82 399.914,50.737C398.527,52.049 399.079,52.363 398.281,53.317C397.092,54.737 397.22,53.149 396.512,51.493C396.868,49.708 397.088,49.807 396.837,48.321Z" style="fill:rgb(218,218,218);fill-rule:nonzero;"/>
        </g>
        <g transform="matrix(0.912945,0,0,0.912945,-6.114668,21.710032)">
            <path d="M104.792,321.594C106.331,319.567 106.284,319.544 106.454,319.405C109.302,317.06 106.766,323.454 105.577,324.62C102.881,327.262 104.712,321.831 104.792,321.594Z" style="fill:rgb(185,185,185);fill-rule:nonzero;"/>
        </g>
        <g transform="matrix(0.912945,0,0,0.912945,-6.114668,21.710032)">
            <path d="M83.224,117.264C87.016,114.123 87.038,120.469 85.502,120.514C81.564,120.627 83.084,117.549 83.224,117.264Z" style="fill:rgb(254,254,254);fill-rule:nonzero;"/>
        </g>
        <g transform="matrix(0.912945,0,0,0.912945,-6.114668,21.710032)">
            <path d="M110.66,337.533C111.244,336.317 111.208,336.302 111.291,336.22C111.496,336.016 113.986,335.548 111.965,339.77C107.546,349.002 110.592,337.729 110.66,337.533Z" style="fill:rgb(239,239,239);fill-rule:nonzero;"/>
        </g>
        <g transform="matrix(0.912945,0,0,0.912945,-6.114668,21.710032)">
            <path d="M301.799,481.594C302.143,481.332 302.158,480.765 302.502,480.503C305.284,478.384 303.647,487.086 301.621,486.193C300.573,485.731 301.228,485.381 301.799,481.594Z" style="fill:rgb(231,231,231);fill-rule:nonzero;"/>
        </g>
        <g transform="matrix(0.912945,0,0,0.912945,-6.114668,21.710032)">
            <path d="M177.764,220.23C179.875,222.907 177.328,224.104 175.75,222.285C174.901,221.305 174.15,217.262 177.764,220.23Z" style="fill:white;fill-rule:nonzero;"/>
        </g>
        <g transform="matrix(0.912945,0,0,0.912945,-6.114668,21.710032)">
            <path d="M155.802,432.585C157.177,430.646 157.298,429.058 158.263,430.624C158.663,431.274 158.39,431.24 157.692,433.601C155.711,440.309 155.779,432.756 155.802,432.585Z" style="fill:rgb(234,234,234);fill-rule:nonzero;"/>
        </g>
        <g transform="matrix(0.912945,0,0,0.912945,-6.114668,21.710032)">
            <path d="M181.077,239.372C179.783,241.337 179.692,242.895 178.756,241.362C178.476,240.904 178.954,237.805 179.705,236.665C179.838,236.462 181.614,235.588 181.077,239.372Z" style="fill:rgb(237,237,237);fill-rule:nonzero;"/>
        </g>
        <g transform="matrix(0.912945,0,0,0.912945,-6.114668,21.710032)">
            <path d="M408.379,106.381C408.22,106.548 404.296,110.686 405.494,106.498C405.632,106.016 406.733,104.037 408.478,103.818C408.681,103.793 410.891,103.875 408.379,106.381Z" style="fill:rgb(246,246,246);fill-rule:nonzero;"/>
        </g>
        <g transform="matrix(0.912945,0,0,0.912945,-6.114668,21.710032)">
            <path d="M340.177,454.477C337.774,460.333 337.147,451.241 339.525,451.198C341.335,451.165 340.231,452.174 340.177,454.477Z" style="fill:rgb(246,246,246);fill-rule:nonzero;"/>
        </g>
        <g transform="matrix(0.912945,0,0,0.912945,-6.114668,21.710032)">
            <path d="M169.65,102.491C169.83,101.889 169.584,101.211 169.764,100.609C170.748,97.314 172.477,103.738 171.341,105.42C169.756,107.765 169.589,103.728 169.58,103.521C169.784,103.291 170.297,103.733 170.501,103.503C170.861,103.097 170.468,102.63 170.42,102.573C170.122,102.218 169.951,102.85 169.65,102.491Z" style="fill:rgb(202,202,202);fill-rule:nonzero;"/>
        </g>
        <g transform="matrix(0.912945,0,0,0.912945,-6.114668,21.710032)">
            <path d="M257.793,478.599C259.153,477.563 259.421,476.038 260.162,477.641C260.603,478.593 259.364,481.104 259.228,481.38C255.921,488.086 257.745,478.844 257.793,478.599Z" style="fill:rgb(232,232,232);fill-rule:nonzero;"/>
        </g>
        <g transform="matrix(0.912945,0,0,0.912945,-6.114668,21.710032)">
            <path d="M123.59,124.422C122.277,125.732 122.455,125.894 121.229,126.34C118.472,120.928 122.355,122.147 122.591,122.385C123.123,122.922 123.057,123.885 123.59,124.422Z" style="fill-opacity:0.81;fill-rule:nonzero;"/>
        </g>
        <g transform="matrix(0.912945,0,0,0.912945,-6.114668,21.710032)">
            <path d="M139.413,136.447C139.436,136.103 139.806,130.516 141.331,132.584C141.331,132.584 141.405,137.15 141.412,137.547L139.413,136.447Z" style="fill:rgb(225,225,225);fill-rule:nonzero;"/>
        </g>
        <g transform="matrix(0.912945,0,0,0.912945,-6.114668,21.710032)">
            <path d="M220.581,470.526C221.509,467.756 221.449,467.748 221.583,467.534C225.778,460.87 222.633,470.26 222.553,470.497C221.544,473.511 220.85,471.008 220.581,470.526Z" style="fill:rgb(181,181,181);fill-rule:nonzero;"/>
        </g>
        <g transform="matrix(0.912945,0,0,0.912945,-6.114668,21.710032)">
            <path d="M301.188,98.472C299.031,103.637 298.044,95.243 300.525,95.198C302.353,95.165 301.233,96.174 301.188,98.472Z" style="fill:rgb(246,246,246);fill-rule:nonzero;"/>
        </g>
        <g transform="matrix(0.912945,0,0,0.912945,-6.114668,21.710032)">
            <path d="M145.5,125.5C145.863,121.512 147.476,124.324 147.485,124.502C147.495,124.679 146.223,133.436 145.5,125.5Z" style="fill:rgb(253,253,253);fill-rule:nonzero;"/>
        </g>
        <g transform="matrix(0.912945,0,0,0.912945,-6.114668,21.710032)">
            <path d="M315.5,191.5C323.436,192.223 314.679,193.495 314.502,193.485C314.324,193.476 311.512,191.863 315.5,191.5Z" style="fill:rgb(253,253,253);fill-rule:nonzero;"/>
        </g>
        <g transform="matrix(0.912945,0,0,0.912945,-6.114668,21.710032)">
            <path d="M152.434,413.441C152.26,413.553 149.092,415.58 149.851,413.557C149.952,413.287 150.841,410.916 152.353,410.96C154.022,411.007 152.982,411.809 152.434,413.441Z" style="fill:rgb(245,245,245);fill-rule:nonzero;"/>
        </g>
        <g transform="matrix(0.912945,0,0,0.912945,-6.114668,21.710032)">
            <path d="M36.824,137.52C37.455,135.983 36.946,134.933 38.507,135.477C40.432,136.148 37.457,142.162 36.824,137.52Z" style="fill:rgb(253,253,253);fill-rule:nonzero;"/>
        </g>
        <g transform="matrix(0.912945,0,0,0.912945,-6.114668,21.710032)">
            <path d="M387.648,213.648C387.838,213.617 391.723,212.98 389.352,215.352C389.215,215.488 387.003,217.583 387.648,213.648Z" style="fill:rgb(253,253,253);fill-rule:nonzero;"/>
        </g>
        <g transform="matrix(0.912945,0,0,0.912945,-6.114668,21.710032)">
            <path d="M50.634,175.534C51.361,174.412 51.102,174.126 52.464,173.817C52.67,173.77 54.207,173.747 52.427,176.452C51.616,177.686 51.344,176.814 50.634,175.534Z" style="fill:rgb(185,185,185);fill-rule:nonzero;"/>
        </g>
        <g transform="matrix(0.912945,0,0,0.912945,-6.114668,21.710032)">
            <path d="M317.522,62.544L318.847,63.363C318.805,63.505 318.323,65.138 318.323,65.138C314.647,67.168 317.407,62.728 317.522,62.544Z" style="fill:rgb(234,234,234);fill-rule:nonzero;"/>
        </g>
        <g transform="matrix(0.912945,0,0,0.912945,-6.114668,21.710032)">
            <path d="M264.828,431.425C265.084,431.664 265.34,431.903 265.596,432.142C263.657,434.221 263.75,434.368 263.505,434.384C259.64,434.639 264.607,431.562 264.828,431.425Z" style="fill:rgb(148,148,148);fill-rule:nonzero;"/>
        </g>
        <g transform="matrix(0.912945,0,0,0.912945,-6.114668,21.710032)">
            <path d="M277.87,99.639C273.836,102.615 276.056,98.179 276.361,98.13C277.379,97.964 277.63,98.216 277.707,98.293C278.263,98.849 277.322,99.091 277.87,99.639Z" style="fill:rgb(253,253,253);fill-rule:nonzero;"/>
        </g>
        <g transform="matrix(0.912945,0,0,0.912945,-6.114668,21.710032)">
            <path d="M184.489,211.748C188.115,214.036 183.218,214.437 182.94,213.36C182.597,212.029 183.22,212.274 184.489,211.748Z" style="fill:rgb(252,252,252);fill-rule:nonzero;"/>
        </g>
        <g transform="matrix(0.912945,0,0,0.912945,-6.114668,21.710032)">
            <path d="M298.514,183.511C298.343,183.571 294.714,184.852 296.486,182.489C296.582,182.361 297.341,181.349 298.365,181.826C298.488,181.883 298.376,181.947 298.514,183.511Z" style="fill:rgb(234,234,234);fill-rule:nonzero;"/>
        </g>
        <g transform="matrix(0.912945,0,0,0.912945,-6.114668,21.710032)">
            <path d="M158.304,221.304C159.551,220.697 160.166,220.1 160.266,221.525C160.361,222.876 156.682,224.654 158.304,221.304Z" style="fill:rgb(157,157,157);fill-rule:nonzero;"/>
        </g>
        <g transform="matrix(0.912945,0,0,0.912945,-6.114668,21.710032)">
            <path d="M198.711,95.715C198.853,95.491 200.497,92.918 200.497,92.918C202.492,92.912 201.18,93.892 200.349,95.616C199.803,95.649 199.257,95.682 198.711,95.715Z" style="fill:rgb(180,180,180);fill-rule:nonzero;"/>
        </g>
        <g transform="matrix(0.912945,0,0,0.912945,-6.114668,21.710032)">
            <path d="M190.739,307.447C192.192,304.26 193.069,305.416 193.17,305.636C193.701,306.798 192.97,306.597 191.288,307.753L190.739,307.447Z" style="fill:rgb(228,228,228);fill-rule:nonzero;"/>
        </g>
        <g transform="matrix(0.912945,0,0,0.912945,-6.114668,21.710032)">
            <path d="M202.114,75.377C199.693,77.798 199.446,74.207 200.623,73.886C201.911,73.535 201.764,74.093 202.114,75.377Z" style="fill:white;fill-rule:nonzero;"/>
        </g>
        <g transform="matrix(0.912945,0,0,0.912945,-6.114668,21.710032)">
            <path d="M151.496,426.508C151.881,425.479 151.224,425.483 151.581,424.53C151.613,424.444 151.844,423.825 152.5,423.825C152.729,423.825 154.911,424.665 151.496,426.508Z" style="fill:rgb(212,212,212);fill-rule:nonzero;"/>
        </g>
        <g transform="matrix(0.912945,0,0,0.912945,-6.114668,21.710032)">
            <path d="M282.445,490.736C282.22,490.441 281.572,491.215 281.347,490.92C281.258,490.804 281.624,488.957 281.79,488.791C281.906,488.675 284.895,487.862 282.445,490.736Z" style="fill:rgb(197,197,197);fill-rule:nonzero;"/>
        </g>
        <g transform="matrix(0.912945,0,0,0.912945,-6.114668,21.710032)">
            <path d="M405.565,266.435C405.434,267.875 405.938,268.937 404.57,268.264C404.436,268.199 403.276,267.629 403.752,266.599C403.813,266.467 403.881,266.588 405.565,266.435Z" style="fill:rgb(234,234,234);fill-rule:nonzero;"/>
        </g>
        <g transform="matrix(0.912945,0,0,0.912945,-6.114668,21.710032)">
            <path d="M39.565,155.565C38.125,155.434 37.062,155.938 37.736,154.57C37.801,154.437 38.366,153.289 39.395,153.765C39.395,153.765 39.551,155.421 39.565,155.565Z" style="fill:rgb(234,234,234);fill-rule:nonzero;"/>
        </g>
        <g transform="matrix(0.912945,0,0,0.912945,-6.114668,21.710032)">
            <path d="M171.581,447.53C171.967,447.53 172.114,446.825 172.5,446.825C172.952,446.825 173.661,448.038 173.419,448.47C172.665,449.819 172.304,448.824 171.581,447.53Z" style="fill:rgb(247,247,247);fill-rule:nonzero;"/>
        </g>
        <g transform="matrix(0.912945,0,0,0.912945,-6.114668,21.710032)">
            <path d="M206.419,465.47C206.033,465.47 205.886,466.175 205.5,466.175C205.048,466.175 204.339,464.962 204.581,464.53C205.335,463.181 205.696,464.176 206.419,465.47Z" style="fill:rgb(247,247,247);fill-rule:nonzero;"/>
        </g>
        <g transform="matrix(0.912945,0,0,0.912945,-6.114668,21.710032)">
            <path d="M46.419,151.53C-35.517,298.088 -37.048,297.563 44.582,151.531C44.977,150.825 45.407,150.825 45.5,150.825C46.174,150.825 45.766,151.531 46.419,151.53Z" style="fill:rgb(247,247,247);fill-rule:nonzero;"/>
        </g>
        <g transform="matrix(0.912945,0,0,0.912945,-6.114668,21.710032)">
            <path d="M295.581,122.47C296.31,121.164 296.66,120.171 297.419,121.53C297.661,121.962 296.954,123.17 296.501,123.17C296.116,123.17 295.966,122.47 295.581,122.47Z" style="fill:rgb(246,246,246);fill-rule:nonzero;"/>
        </g>
        <g transform="matrix(0.912945,0,0,0.912945,-6.114668,21.710032)">
            <path d="M160.581,375.47C161.294,374.196 161.64,373.231 162.368,374.552C162.62,375.01 161.934,376.173 161.5,376.175C161.114,376.177 160.967,375.468 160.581,375.47Z" style="fill:rgb(249,249,249);fill-rule:nonzero;"/>
        </g>
        <g transform="matrix(0.912945,0,0,0.912945,-6.114668,21.710032)">
            <path d="M141.307,130.423C139.992,130.423 139.42,130.809 139.501,129.5C139.511,129.338 141.083,126.779 141.307,130.423Z" style="fill:rgb(222,222,222);fill-rule:nonzero;"/>
        </g>
        <g transform="matrix(0.912945,0,0,0.912945,-6.114668,21.710032)">
            <path d="M336.492,418.524C332.924,417.864 335.319,416.552 335.496,416.534C336.884,416.39 336.273,417.127 336.492,418.524Z" style="fill:rgb(202,202,202);fill-rule:nonzero;"/>
        </g>
        <g transform="matrix(0.912945,0,0,0.912945,-6.114668,21.710032)">
            <path d="M191.499,467.543C190.649,466.655 189.96,466.62 190.79,465.79C190.897,465.683 194.123,464.809 191.499,467.543Z" style="fill:rgb(249,249,249);fill-rule:nonzero;"/>
        </g>
        <g transform="matrix(0.912945,0,0,0.912945,-6.114668,21.710032)">
            <path d="M331.577,88.523C333.102,88.504 334.252,88.161 333.417,89.465C332.619,90.712 332.312,89.834 331.577,88.523Z" style="fill:rgb(232,232,232);fill-rule:nonzero;"/>
        </g>
        <g transform="matrix(0.912945,0,0,0.912945,-6.114668,21.710032)">
            <path d="M95.501,292.5C92.779,295.219 93.685,291.895 93.79,291.79C94.64,290.94 94.668,291.668 95.501,292.5Z" style="fill:rgb(253,253,253);fill-rule:nonzero;"/>
        </g>
        <g transform="matrix(0.912945,0,0,0.912945,-6.114668,21.710032)">
            <path d="M393.5,183.5C393.613,183.387 395.5,181.5 395.5,183.5C395.5,185.5 393.613,183.613 393.5,183.5Z" style="fill:rgb(254,254,254);fill-rule:nonzero;"/>
        </g>
        <g transform="matrix(0.912945,0,0,0.912945,-6.114668,21.710032)">
            <path d="M141.5,213.5C141.613,213.387 143.5,211.5 143.5,213.5C143.5,215.5 141.613,213.613 141.5,213.5Z" style="fill:rgb(254,254,254);fill-rule:nonzero;"/>
        </g>
        <g transform="matrix(0.912945,0,0,0.912945,-6.114668,21.710032)">
            <path d="M42.5,160.5C41.668,159.668 40.942,159.64 41.791,158.791C41.896,158.686 45.193,157.807 42.5,160.5Z" style="fill:rgb(254,254,254);fill-rule:nonzero;"/>
        </g>
        <g transform="matrix(0.912945,0,0,0.912945,-6.114668,21.710032)">
            <path d="M157.5,425.5C158.332,424.668 158.361,423.94 159.21,424.79C159.315,424.895 160.241,428.234 157.5,425.5Z" style="fill:rgb(254,254,254);fill-rule:nonzero;"/>
        </g>
        <g transform="matrix(0.912945,0,0,0.912945,-6.114668,21.710032)">
            <path d="M185.814,101.216C185.767,98.346 187.097,99.677 187.21,99.79C187.291,99.87 187.21,99.79 187.207,101.213C186.743,101.214 186.278,101.215 185.814,101.216Z" style="fill:rgb(251,251,251);fill-rule:nonzero;"/>
        </g>
        <g transform="matrix(0.912945,0,0,0.912945,-6.114668,21.710032)">
            <path d="M45.41,96.653C44.438,95.396 43.904,94.629 45.501,94.517C46.326,94.46 46.424,94.617 46.466,94.684C46.561,94.835 46.39,94.824 45.41,96.653Z" style="fill:rgb(182,182,182);fill-rule:nonzero;"/>
        </g>
        <g transform="matrix(0.912945,0,0,0.912945,-6.114668,21.710032)">
            <path d="M87.12,219.5C86.799,219.668 86.858,220.25 86.537,220.417C85.566,220.925 85.566,218.075 86.537,218.583C86.858,218.75 86.799,219.332 87.12,219.5Z" style="fill:rgb(185,185,185);fill-rule:nonzero;"/>
        </g>
        <g transform="matrix(0.912945,0,0,0.912945,-6.114668,21.710032)">
            <path d="M317.522,62.544C317.913,62.568 318.11,61.87 318.5,61.895C318.5,61.895 318.819,63.245 318.847,63.363L317.522,62.544Z" style="fill:rgb(155,155,155);fill-rule:nonzero;"/>
        </g>
        <g transform="matrix(0.912945,0,0,0.912945,-6.114668,21.710032)">
            <path d="M399.403,279.561C400.091,280.769 401.594,280.578 400.5,281.488C400.199,281.738 399.675,280.901 399.374,281.151C399.384,280.621 399.393,280.091 399.403,279.561Z" style="fill:rgb(135,135,135);fill-rule:nonzero;"/>
        </g>
        <g transform="matrix(0.912945,0,0,0.912945,-6.114668,21.710032)">
            <path d="M169.65,102.491C169.951,102.85 170.122,102.218 170.42,102.573C170.468,102.63 170.861,103.097 170.501,103.503C170.297,103.733 169.784,103.291 169.58,103.521L169.65,102.491Z" style="fill:rgb(70,70,70);fill-rule:nonzero;"/>
        </g>
    </g>
</svg>
